HIERARCHY
ROOT Hips
{
	OFFSET	0.00	0.00	0.00
	CHANNELS 6 Xposition Yposition Zposition Zrotation Xrotation Yrotation
	JOINT LeftUpLeg
	{
		OFFSET	 0.126116	-0.014019	-0.065224
		CHANNELS 3 Zrotation Xrotation Yrotation
		JOINT LeftLeg
		{
			OFFSET	 0.000000	 0.000000	 0.569914
			CHANNELS 3 Zrotation Xrotation Yrotation
			JOINT LeftFoot
			{
				OFFSET	 0.000000	 0.000000	 0.544423
				CHANNELS 3 Zrotation Xrotation Yrotation
				JOINT LeftToeBase
				{
					OFFSET	 0.000000	 0.000000	 0.207117
					CHANNELS 3 Zrotation Xrotation Yrotation
					End Site
					{
						OFFSET	 0.000000	 0.000000	 0.207117
					}
				}
			}
		}
	}
	JOINT RightUpLeg
	{
		OFFSET	-0.124023	-0.008373	-0.065224
		CHANNELS 3 Zrotation Xrotation Yrotation
		JOINT RightLeg
		{
			OFFSET	 0.000000	 0.000000	 0.570047
			CHANNELS 3 Zrotation Xrotation Yrotation
			JOINT RightFoot
			{
				OFFSET	 0.000000	 0.000000	 0.544354
				CHANNELS 3 Zrotation Xrotation Yrotation
				JOINT RightToeBase
				{
					OFFSET	 0.000000	 0.000000	 0.207540
					CHANNELS 3 Zrotation Xrotation Yrotation
					End Site
					{
						OFFSET	 0.000000	 0.000000	 0.207540
					}
				}
			}
		}
	}
	JOINT Spine
	{
		OFFSET	 0.000184	-0.007763	 0.117403
		CHANNELS 3 Zrotation Xrotation Yrotation
		JOINT Spine1
		{
			OFFSET	 0.000000	 0.000000	 0.137269
			CHANNELS 3 Zrotation Xrotation Yrotation
			JOINT Spine2
			{
				OFFSET	 0.000000	 0.000000	 0.156879
				CHANNELS 3 Zrotation Xrotation Yrotation
				JOINT LeftShoulder
				{
					OFFSET	 0.080501	-0.002496	 0.160144
					CHANNELS 3 Zrotation Xrotation Yrotation
					JOINT LeftArm
					{
						OFFSET	 0.000000	 0.000000	 0.164363
						CHANNELS 3 Zrotation Xrotation Yrotation
						JOINT LeftForeArm
						{
							OFFSET	 0.000000	 0.000000	 0.364576
							CHANNELS 3 Zrotation Xrotation Yrotation
							JOINT LeftHand
							{
								OFFSET	 0.000000	 0.000000	 0.360812
								CHANNELS 3 Zrotation Xrotation Yrotation
								JOINT LeftHandIndex1
								{
									OFFSET	 0.000000	 0.000000	 0.086006
									CHANNELS 3 Zrotation Xrotation Yrotation
									JOINT LeftHandIndex2
									{
										OFFSET	 0.000000	 0.000000	 0.047237
										CHANNELS 3 Zrotation Xrotation Yrotation
										JOINT LeftHandIndex3
										{
											OFFSET	-0.004284	-0.000551	 0.038165
											CHANNELS 3 Zrotation Xrotation Yrotation
											End Site
											{
												OFFSET	-0.004284	-0.000551	 0.038165
											}
										}
									}
								}
							}
						}
					}
				}
				JOINT Neck
				{
					OFFSET	 0.000000	 0.000000	 0.176489
					CHANNELS 3 Zrotation Xrotation Yrotation
					JOINT Head
					{
						OFFSET	 0.000000	-0.001747	 0.077940
						CHANNELS 3 Zrotation Xrotation Yrotation
						End Site
						{
							OFFSET	 0.000000	-0.001747	 0.077940
						}
					}
				}
				JOINT RightShoulder
				{
					OFFSET	-0.080363	 0.000306	 0.159706
					CHANNELS 3 Zrotation Xrotation Yrotation
					JOINT RightArm
					{
						OFFSET	 0.000000	 0.000000	 0.164196
						CHANNELS 3 Zrotation Xrotation Yrotation
						JOINT RightForeArm
						{
							OFFSET	 0.000000	 0.000000	 0.365611
							CHANNELS 3 Zrotation Xrotation Yrotation
							JOINT RightHand
							{
								OFFSET	 0.000000	 0.000000	 0.360648
								CHANNELS 3 Zrotation Xrotation Yrotation
								JOINT RightHandIndex1
								{
									OFFSET	 0.000000	 0.000000	 0.069977
									CHANNELS 3 Zrotation Xrotation Yrotation
									JOINT RightHandIndex2
									{
										OFFSET	 0.000000	 0.000000	 0.052305
										CHANNELS 3 Zrotation Xrotation Yrotation
										JOINT RightHandIndex3
										{
											OFFSET	 0.009002	-0.000782	 0.042196
											CHANNELS 3 Zrotation Xrotation Yrotation
											End Site
											{
												OFFSET	 0.009002	-0.000782	 0.042196
											}
										}
									}
								}
							}
						}
					}
				}
			}
		}
	}
}
MOTION
Frames:    10
Frame Time: 0.03333334
-0.709439	-1.658473	 1.272400	-176.507700	 4.618974	-4.023178	-34.139330	-4.414666	-175.054300	-0.823489	-0.512558	 0.010107	-13.134900	 48.133250	 2.076495	-2.385833	 28.452760	 0.000004	 27.155730	-10.904530	 179.743600	-4.587435	-21.640300	 2.336212	-20.398050	 81.687100	 31.108150	 2.384659	 28.388700	-0.000001	-20.198650	 7.805675	 7.711216	-11.145900	-12.309380	-8.479550	 24.721090	-5.248219	 1.091164	-91.776180	 78.527380	-180.000000	-32.811470	 3.777231	 9.541471	-8.303758	-7.080120	-46.185380	 6.355158	-27.460250	-4.945849	-4.131196	 21.524690	 0.986298	-5.167839	 0.733520	 3.519257	-1.378229	 35.397820	-2.634230	 1.620157	 7.415941	 0.343120	-7.232833	-9.047817	-2.816625	 89.782120	 78.203870	 180.000000	-27.655760	-7.283439	-14.720700	-2.487910	-13.477140	 40.398050	 10.858790	 37.605230	 100.061200	 5.715225	 19.176060	-3.692089	 5.027514	 0.245388	-9.378011	-2.350882	 35.473990	 5.254307
-0.704929	-1.652546	 1.271128	-176.048600	 4.601039	-4.992450	-33.326170	-6.535037	-174.369600	-0.150055	-6.263761	 0.196675	-14.989280	 48.802930	 4.151382	-2.385833	 28.452760	 0.000004	 30.035910	-12.461990	-178.942000	-5.420711	-25.364820	 2.353221	-64.348810	 86.500560	 75.882150	 2.384659	 28.388700	-0.000001	-21.967970	 8.049090	 8.918925	-12.597410	-11.468400	-9.341792	 24.809320	-5.518228	 1.095566	-91.776170	 78.527420	-180.000000	-31.010900	 9.490968	 21.259510	-11.419390	-8.286581	-66.248670	 5.468107	-28.244790	-4.632870	-4.131196	 21.524690	 0.986298	-5.167839	 0.733520	 3.519257	-1.378229	 35.397820	-2.634230	 1.477716	 8.046465	 0.957141	-6.949500	-9.512645	-2.780710	 89.782120	 78.203870	 180.000000	-29.188260	-3.547514	-18.329110	 1.087104	-17.269810	 55.005520	 14.141920	 36.973460	 93.265690	 5.715225	 19.176060	-3.692089	 5.027514	 0.245388	-9.378011	-2.350882	 35.473990	 5.254307
-0.703113	-1.650093	 1.270570	-175.990100	 4.444389	-5.164348	-33.152870	-7.846572	-174.214200	 0.297639	-10.087790	 0.394255	-16.197940	 50.443990	 5.296619	-2.385833	 28.452760	 0.000004	 30.906030	-12.869770	-178.623300	-5.864462	-26.469230	 2.249226	-89.805930	 87.242810	 101.664900	 2.384659	 28.388700	-0.000001	-22.586880	 8.074304	 9.182110	-13.072170	-10.364460	-9.499457	 24.869600	-6.065040	 1.292019	-91.776210	 78.527380	-180.000000	-29.047260	 11.745130	 25.180670	-12.455460	-8.472302	-72.914860	 5.316031	-28.400410	-4.568815	-4.131196	 21.524690	 0.986298	-5.167839	 0.733520	 3.519257	-1.378229	 35.397820	-2.634230	 1.425197	 7.994960	 1.115503	-6.914323	-9.300769	-2.727594	 89.782040	 78.203920	-180.000000	-28.506850	-1.700693	-18.861410	 2.656555	-18.148220	 60.058430	 14.675450	 35.527850	 89.185670	 5.715225	 19.176060	-3.692089	 5.027514	 0.245388	-9.378011	-2.350882	 35.473990	 5.254307
-0.693513	-1.635658	 1.267603	-175.817600	 3.454028	-5.670102	-33.826920	-9.774513	-173.518500	 2.576023	-21.230620	 1.642706	-22.078170	 55.349370	 10.505100	-2.385833	 28.452760	 0.000004	 32.651680	-14.863470	-176.989700	-6.684540	-31.360880	 2.196905	-175.575000	 87.452930	-172.271200	 2.384659	 28.388700	-0.000001	-26.135530	 8.233169	 10.751670	-15.538300	-2.293547	-11.329990	 25.456400	-10.094130	 4.083432	-91.776300	 78.527380	-179.999900	-13.742440	 27.033350	 36.480510	-16.311650	-7.859201	-99.161960	 4.630543	-29.095040	-4.300487	-4.131196	 21.524690	 0.986298	-5.167839	 0.733520	 3.519257	-1.378229	 35.397820	-2.634230	 1.519368	 8.076139	 1.278646	-6.707354	-9.440924	-2.712031	 89.782120	 78.203890	 180.000000	-24.421430	 12.437670	-16.989100	 9.388611	-20.429160	 80.231430	 6.852226	 29.500190	 74.128790	 5.715225	 19.176060	-3.692089	 5.027514	 0.245388	-9.378011	-2.350882	 35.473990	 5.254307
-0.679637	-1.611232	 1.264589	-175.946800	 3.195433	-5.530451	-36.208350	-8.850541	-173.454000	 4.753965	-29.514670	 3.315193	-28.437400	 59.187070	 16.391390	-2.385833	 28.452760	 0.000004	 33.792470	-18.223410	-173.984600	-6.241285	-35.871120	 2.734013	 53.332890	 83.437140	-43.184580	 2.384659	 28.388700	-0.000001	-31.259850	 7.285714	 10.624280	-19.289370	 10.735580	-10.588540	 26.844920	-17.196430	 7.370087	-91.776140	 78.527380	 180.000000	 24.140390	 44.358150	 4.148939	-16.763610	-7.169246	-103.493700	 4.197511	-29.674970	-4.155124	-4.131196	 21.524690	 0.986298	-5.167839	 0.733520	 3.519257	-1.378229	 35.397820	-2.634230	 1.764502	 8.245651	 0.995520	-6.574337	-9.840648	-2.597762	 89.782070	 78.203920	-180.000000	-20.826170	 43.125270	-7.170907	 10.877840	-21.202400	 84.622630	-27.701730	 23.162130	 73.377200	 5.715225	 19.176060	-3.692089	 5.027514	 0.245388	-9.378011	-2.350882	 35.473990	 5.254307
-0.661712	-1.576968	 1.263285	-176.056400	 5.012929	-3.723778	-38.767330	-6.147130	-175.571000	 3.117839	-34.732860	 2.893712	-28.314890	 59.211220	 18.600450	-2.385833	 28.452760	 0.000004	 35.179160	-22.950000	-170.659100	-6.694919	-37.595120	 2.568503	 42.752680	 75.234300	-34.954060	 2.384659	 28.388700	-0.000001	-36.485460	 6.819918	 4.776589	-24.776570	 19.309510	-3.610089	 27.535500	-23.620910	 7.305762	-91.776180	 78.527400	 180.000000	 35.702740	 47.555890	-43.508910	-11.566550	-6.601094	-62.109290	 3.989280	-30.364550	-4.121127	-4.131196	 21.524690	 0.986298	-5.167839	 0.733520	 3.519257	-1.378229	 35.397820	-2.634230	 2.180590	 8.415209	 0.317708	-6.432493	-10.216020	-1.883155	 89.782070	 78.203850	-180.000000	-29.503310	 65.551840	 14.487270	 0.246320	-18.210960	 54.419950	-56.543100	-3.469697	 79.296300	 5.715225	 19.176060	-3.692089	 5.027514	 0.245388	-9.378011	-2.350882	 35.473990	 5.254307
-0.639259	-1.538905	 1.263364	-176.046400	 6.132888	-2.294488	-38.519070	-2.752134	-177.360500	 1.571291	-36.043840	 2.074901	-22.018080	 52.575050	 14.751090	-2.385833	 28.452760	 0.000004	 35.703410	-25.231210	-169.656500	-7.798800	-37.275020	 1.879555	 41.473200	 71.259580	-34.445410	 2.384659	 28.388700	-0.000001	-38.814980	 7.359749	 0.353300	-27.788470	 20.892270	 1.354942	 27.207450	-26.344240	 5.936717	-91.776200	 78.527380	-180.000000	 24.090010	 50.309750	-69.996220	-7.216611	-0.069874	-0.507177	 3.864314	-31.133910	-4.135056	-4.131196	 21.524690	 0.986298	-5.167839	 0.733520	 3.519257	-1.378229	 35.397820	-2.634230	 2.472227	 8.760828	 0.039152	-6.241239	-10.563510	-1.659265	 89.782090	 78.203890	 180.000000	-33.712660	 67.910390	 33.742910	-8.035611	-7.060454	 17.875030	-63.153080	-28.119310	 79.161980	 5.715225	 19.176060	-3.692089	 5.027514	 0.245388	-9.378011	-2.350882	 35.473990	 5.254307
-0.608582	-1.492161	 1.263744	-175.894300	 5.123768	-1.567846	-35.954680	 1.205071	-178.112400	 0.528056	-35.965020	 1.457184	-14.539050	 42.573010	 9.802162	-2.385833	 28.452760	 0.000004	 33.634850	-24.638260	-172.000200	-8.220575	-36.051660	 1.577833	 38.208320	 69.421970	-31.236300	 2.384659	 28.388700	-0.000001	-38.665550	 8.311001	-0.285675	-27.749720	 20.244490	 1.875079	 27.142440	-26.935980	 5.987579	-91.776150	 78.527400	 180.000000	 27.872900	 54.083290	-58.326770	-7.559421	-3.864919	-27.147070	 4.191334	-31.483120	-4.315167	-4.131196	 21.524690	 0.986298	-5.167839	 0.733520	 3.519257	-1.378229	 35.397820	-2.634230	 2.416105	 8.779039	-0.230352	-6.613986	-10.627070	-2.516789	 89.782130	 78.203920	 179.999900	-33.715690	 67.402600	 28.136720	-6.161369	-9.752674	 26.209410	-60.238140	-23.038100	 80.181020	 5.715225	 19.176060	-3.692089	 5.027514	 0.245388	-9.378011	-2.350882	 35.473990	 5.254307
-0.576827	-1.445319	 1.264097	-176.104200	 4.192573	-0.627018	-33.475260	 2.652114	-179.602100	-0.167228	-38.971390	 1.122799	-10.266930	 37.050480	 6.917090	-2.385833	 28.452760	 0.000004	 30.578020	-24.275940	-175.516300	-7.983843	-35.469100	 1.693295	 33.559590	 68.539510	-26.536500	 2.384659	 28.388700	-0.000001	-37.704220	 9.277054	-1.267280	-27.325220	 19.295430	 1.258548	 27.466850	-27.047950	 7.332360	-91.776130	 78.527420	 180.000000	 31.266000	 55.068440	-48.164180	-8.740449	-6.665504	-46.399050	 5.105914	-31.211860	-4.718386	-4.131196	 21.524690	 0.986298	-5.167839	 0.733520	 3.519257	-1.378229	 35.397820	-2.634230	 2.075469	 8.416160	-0.782043	-7.530768	-10.474080	-3.857316	 89.782120	 78.203900	 180.000000	-32.640910	 67.150760	 21.051590	-3.710590	-12.667530	 36.446240	-56.352020	-16.365390	 80.475930	 5.715225	 19.176060	-3.692089	 5.027514	 0.245388	-9.378011	-2.350882	 35.473990	 5.254307
-0.535328	-1.388466	 1.264330	-177.464000	 3.469819	 1.442750	-30.773210	 0.490168	 176.634600	-0.979833	-48.780230	 0.731369	-9.477555	 40.762650	 6.820370	-2.385833	 28.452760	 0.000004	 27.849050	-24.936820	 178.706800	-7.975510	-36.746820	 1.750834	 29.585470	 68.987920	-21.989530	 2.384659	 28.388700	-0.000001	-36.164640	 11.128380	-3.988259	-27.681330	 18.823120	 0.995042	 27.839010	-28.035950	 8.699749	-91.776190	 78.527360	-180.000000	 33.960790	 54.668220	-45.465160	-7.923581	-7.463442	-46.101120	 6.539145	-30.702670	-5.398105	-4.131196	 21.524690	 0.986298	-5.167839	 0.733520	 3.519257	-1.378229	 35.397820	-2.634230	 1.609078	 8.503064	-1.187292	-8.324467	-10.407200	-4.782556	 89.782090	 78.203890	-180.000000	-32.294530	 68.194750	 21.385790	-4.667632	-11.563430	 32.453690	-55.239780	-19.550610	 81.667760	 5.715225	 19.176060	-3.692089	 5.027514	 0.245388	-9.378011	-2.350882	 35.473990	 5.254307
